<?xml version="1.0" standalone="yes"?>

<svg version="1.1" viewBox="0.0 0.0 684.6141732283464 275.38582677165357" fill="none" stroke="none" stroke-linecap="square" stroke-miterlimit="10" xmlns="http://www.w3.org/2000/svg" xmlns:xlink="http://www.w3.org/1999/xlink"><clipPath id="p.0"><path d="m0 0l684.6142 0l0 275.38583l-684.6142 0l0 -275.38583z" clip-rule="nonzero"></path></clipPath><g clip-path="url(#p.0)"><path fill="#000000" fill-opacity="0.0" d="m0 0l684.6142 0l0 275.38583l-684.6142 0z" fill-rule="nonzero"></path><path fill="#000000" fill-opacity="0.0" d="m13.112861 9.818897l50.614174 0l0 57.669292l-50.614174 0z" fill-rule="nonzero"></path><path stroke="#000000" stroke-width="2.0" stroke-linejoin="round" stroke-linecap="butt" d="m13.112861 9.818897l50.614174 0l0 57.669292l-50.614174 0z" fill-rule="nonzero"></path><path fill="#000000" d="m32.521046 27.367023q0.578125 1.046875 1.328125 2.609375q0.75 1.546875 1.5625 3.359375q0.8125 1.796875 1.609375 3.6875q0.8125 1.890625 1.515625 3.5625q0.703125 -1.671875 1.5 -3.5625q0.796875 -1.890625 1.609375 -3.6875q0.828125 -1.8125 1.578125 -3.359375q0.75 -1.5625 1.328125 -2.609375l4.546875 0q0.3125 2.203125 0.578125 4.9375q0.28125 2.734375 0.484375 5.703125q0.203125 2.953125 0.375 5.9375q0.1875 2.96875 0.3125 5.59375l-4.859375 0q-0.09375 -3.234375 -0.265625 -7.03125q-0.15625 -3.8125 -0.46875 -7.6875q-0.578125 1.34375 -1.28125 2.984375q-0.703125 1.625 -1.390625 3.265625q-0.6875 1.625 -1.328125 3.109375q-0.640625 1.484375 -1.09375 2.546875l-3.484375 0q-0.453125 -1.0625 -1.09375 -2.546875q-0.640625 -1.484375 -1.328125 -3.109375q-0.6875 -1.640625 -1.390625 -3.265625q-0.703125 -1.640625 -1.28125 -2.984375q-0.3125 3.875 -0.484375 7.6875q-0.15625 3.796875 -0.25 7.03125l-4.859375 0q0.125 -2.625 0.296875 -5.59375q0.1875 -2.984375 0.390625 -5.9375q0.203125 -2.96875 0.46875 -5.703125q0.28125 -2.734375 0.609375 -4.9375l4.765625 0z" fill-rule="nonzero"></path><path fill="#000000" fill-opacity="0.0" d="m63.727036 9.818897l50.614174 0l0 57.669292l-50.614174 0z" fill-rule="nonzero"></path><path stroke="#000000" stroke-width="2.0" stroke-linejoin="round" stroke-linecap="butt" d="m63.727036 9.818897l50.614174 0l0 57.669292l-50.614174 0z" fill-rule="nonzero"></path><path fill="#000000" d="m81.9006 49.5389l0 -22.171875l14.96875 0l0 4.1875l-9.984375 0l0 4.359375l8.875 0l0 4.09375l-8.875 0l0 5.34375l10.71875 0l0 4.1875l-15.703125 0z" fill-rule="nonzero"></path><path fill="#000000" fill-opacity="0.0" d="m114.34121 9.818897l50.614174 0l0 57.669292l-50.614174 0z" fill-rule="nonzero"></path><path stroke="#000000" stroke-width="2.0" stroke-linejoin="round" stroke-linecap="butt" d="m114.34121 9.818897l50.614174 0l0 57.669292l-50.614174 0z" fill-rule="nonzero"></path><path fill="#000000" d="m138.94565 45.7264q1.046875 0 1.734375 -0.171875q0.703125 -0.171875 1.109375 -0.46875q0.421875 -0.3125 0.578125 -0.71875q0.15625 -0.421875 0.15625 -0.9375q0 -1.09375 -1.03125 -1.8125q-1.015625 -0.71875 -3.515625 -1.546875q-1.078125 -0.390625 -2.171875 -0.875q-1.078125 -0.5 -1.953125 -1.25q-0.859375 -0.765625 -1.40625 -1.828125q-0.546875 -1.078125 -0.546875 -2.609375q0 -1.53125 0.578125 -2.765625q0.578125 -1.234375 1.625 -2.09375q1.0625 -0.875 2.5625 -1.328125q1.515625 -0.46875 3.40625 -0.46875q2.234375 0 3.859375 0.484375q1.640625 0.46875 2.6875 1.046875l-1.4375 3.9375q-0.921875 -0.484375 -2.0625 -0.84375q-1.140625 -0.375 -2.734375 -0.375q-1.796875 0 -2.578125 0.5q-0.78125 0.5 -0.78125 1.515625q0 0.609375 0.28125 1.03125q0.296875 0.421875 0.8125 0.765625q0.53125 0.328125 1.21875 0.59375q0.703125 0.265625 1.53125 0.5625q1.71875 0.640625 3.0 1.265625q1.28125 0.625 2.125 1.453125q0.859375 0.828125 1.265625 1.953125q0.421875 1.109375 0.421875 2.71875q0 3.109375 -2.1875 4.828125q-2.171875 1.703125 -6.546875 1.703125q-1.46875 0 -2.65625 -0.1875q-1.1875 -0.171875 -2.109375 -0.421875q-0.90625 -0.265625 -1.5625 -0.546875q-0.65625 -0.28125 -1.09375 -0.546875l1.40625 -3.96875q0.984375 0.546875 2.4375 0.984375q1.46875 0.421875 3.578125 0.421875z" fill-rule="nonzero"></path><path fill="#93c47d" d="m164.95538 9.818897l50.614166 0l0 57.669292l-50.614166 0z" fill-rule="nonzero"></path><path stroke="#000000" stroke-width="2.0" stroke-linejoin="round" stroke-linecap="butt" d="m164.95538 9.818897l50.614166 0l0 57.669292l-50.614166 0z" fill-rule="nonzero"></path><path fill="#000000" d="m189.55983 45.7264q1.046875 0 1.734375 -0.171875q0.703125 -0.171875 1.109375 -0.46875q0.421875 -0.3125 0.578125 -0.71875q0.15625 -0.421875 0.15625 -0.9375q0 -1.09375 -1.03125 -1.8125q-1.015625 -0.71875 -3.515625 -1.546875q-1.078125 -0.390625 -2.171875 -0.875q-1.078125 -0.5 -1.953125 -1.25q-0.859375 -0.765625 -1.40625 -1.828125q-0.546875 -1.078125 -0.546875 -2.609375q0 -1.53125 0.578125 -2.765625q0.578125 -1.234375 1.625 -2.09375q1.0625 -0.875 2.5625 -1.328125q1.515625 -0.46875 3.40625 -0.46875q2.234375 0 3.859375 0.484375q1.640625 0.46875 2.6875 1.046875l-1.4375 3.9375q-0.921875 -0.484375 -2.0625 -0.84375q-1.140625 -0.375 -2.734375 -0.375q-1.796875 0 -2.578125 0.5q-0.78125 0.5 -0.78125 1.515625q0 0.609375 0.28125 1.03125q0.296875 0.421875 0.8125 0.765625q0.53125 0.328125 1.21875 0.59375q0.703125 0.265625 1.53125 0.5625q1.71875 0.640625 3.0 1.265625q1.28125 0.625 2.125 1.453125q0.859375 0.828125 1.265625 1.953125q0.421875 1.109375 0.421875 2.71875q0 3.109375 -2.1875 4.828125q-2.171875 1.703125 -6.546875 1.703125q-1.46875 0 -2.65625 -0.1875q-1.1875 -0.171875 -2.109375 -0.421875q-0.90625 -0.265625 -1.5625 -0.546875q-0.65625 -0.28125 -1.09375 -0.546875l1.40625 -3.96875q0.984375 0.546875 2.4375 0.984375q1.46875 0.421875 3.578125 0.421875z" fill-rule="nonzero"></path><path fill="#000000" fill-opacity="0.0" d="m215.56955 9.818897l50.614166 0l0 57.669292l-50.614166 0z" fill-rule="nonzero"></path><path stroke="#000000" stroke-width="2.0" stroke-linejoin="round" stroke-linecap="butt" d="m215.56955 9.818897l50.614166 0l0 57.669292l-50.614166 0z" fill-rule="nonzero"></path><path fill="#000000" d="m246.74687 49.5389q-0.34375 -1.15625 -0.78125 -2.359375q-0.4375 -1.21875 -0.84375 -2.4375l-8.640625 0q-0.421875 1.21875 -0.859375 2.4375q-0.421875 1.203125 -0.78125 2.359375l-5.1875 0q1.25 -3.578125 2.375 -6.609375q1.125 -3.046875 2.1875 -5.734375q1.078125 -2.703125 2.109375 -5.109375q1.046875 -2.421875 2.171875 -4.71875l4.765625 0q1.09375 2.296875 2.140625 4.71875q1.0625 2.40625 2.125 5.109375q1.078125 2.6875 2.1875 5.734375q1.125 3.03125 2.375 6.609375l-5.34375 0zm-5.984375 -17.15625q-0.15625 0.484375 -0.484375 1.3125q-0.3125 0.828125 -0.734375 1.921875q-0.40625 1.09375 -0.90625 2.40625q-0.5 1.3125 -1.015625 2.75l6.3125 0q-0.515625 -1.4375 -1.0 -2.75q-0.46875 -1.3125 -0.90625 -2.40625q-0.4375 -1.09375 -0.765625 -1.921875q-0.3125 -0.828125 -0.5 -1.3125z" fill-rule="nonzero"></path><path fill="#f6b26b" d="m266.18372 9.818897l50.614197 0l0 57.669292l-50.614197 0z" fill-rule="nonzero"></path><path stroke="#000000" stroke-width="2.0" stroke-linejoin="round" stroke-linecap="butt" d="m266.18372 9.818897l50.614197 0l0 57.669292l-50.614197 0z" fill-rule="nonzero"></path><path fill="#000000" d="m293.6338 31.195148q-3.484375 0 -5.046875 1.9375q-1.546875 1.9375 -1.546875 5.296875q0 1.640625 0.375 2.96875q0.390625 1.328125 1.15625 2.296875q0.78125 0.953125 1.921875 1.484375q1.15625 0.515625 2.6875 0.515625q0.84375 0 1.421875 -0.03125q0.59375 -0.03125 1.046875 -0.125l0 -7.71875l5.0 0l0 10.984375q-0.90625 0.34375 -2.890625 0.75q-1.984375 0.40625 -4.890625 0.40625q-2.5 0 -4.53125 -0.765625q-2.03125 -0.78125 -3.46875 -2.25q-1.4375 -1.46875 -2.234375 -3.609375q-0.78125 -2.15625 -0.78125 -4.90625q0 -2.78125 0.859375 -4.921875q0.875 -2.140625 2.375 -3.625q1.515625 -1.5 3.546875 -2.265625q2.03125 -0.765625 4.328125 -0.765625q1.5625 0 2.828125 0.21875q1.265625 0.203125 2.171875 0.46875q0.921875 0.265625 1.515625 0.5625q0.59375 0.28125 0.84375 0.453125l-1.4375 4.0q-1.03125 -0.546875 -2.359375 -0.953125q-1.328125 -0.40625 -2.890625 -0.40625z" fill-rule="nonzero"></path><path fill="#000000" fill-opacity="0.0" d="m316.7979 9.818897l50.614166 0l0 57.669292l-50.614166 0z" fill-rule="nonzero"></path><path stroke="#000000" stroke-width="2.0" stroke-linejoin="round" stroke-linecap="butt" d="m316.7979 9.818897l50.614166 0l0 57.669292l-50.614166 0z" fill-rule="nonzero"></path><path fill="#000000" d="m334.97147 49.5389l0 -22.171875l14.96875 0l0 4.1875l-9.984375 0l0 4.359375l8.875 0l0 4.09375l-8.875 0l0 5.34375l10.71875 0l0 4.1875l-15.703125 0z" fill-rule="nonzero"></path><path fill="#93c47d" d="m367.41208 9.818897l50.614166 0l0 57.669292l-50.614166 0z" fill-rule="nonzero"></path><path stroke="#000000" stroke-width="2.0" stroke-linejoin="round" stroke-linecap="butt" d="m367.41208 9.818897l50.614166 0l0 57.669292l-50.614166 0z" fill-rule="nonzero"></path><path fill="#000000" d="m392.0165 45.7264q1.046875 0 1.734375 -0.171875q0.703125 -0.171875 1.109375 -0.46875q0.421875 -0.3125 0.578125 -0.71875q0.15625 -0.421875 0.15625 -0.9375q0 -1.09375 -1.03125 -1.8125q-1.015625 -0.71875 -3.515625 -1.546875q-1.078125 -0.390625 -2.171875 -0.875q-1.078125 -0.5 -1.953125 -1.25q-0.859375 -0.765625 -1.40625 -1.828125q-0.546875 -1.078125 -0.546875 -2.609375q0 -1.53125 0.578125 -2.765625q0.578125 -1.234375 1.625 -2.09375q1.0625 -0.875 2.5625 -1.328125q1.515625 -0.46875 3.40625 -0.46875q2.234375 0 3.859375 0.484375q1.640625 0.46875 2.6875 1.046875l-1.4375 3.9375q-0.921875 -0.484375 -2.0625 -0.84375q-1.140625 -0.375 -2.734375 -0.375q-1.796875 0 -2.578125 0.5q-0.78125 0.5 -0.78125 1.515625q0 0.609375 0.28125 1.03125q0.296875 0.421875 0.8125 0.765625q0.53125 0.328125 1.21875 0.59375q0.703125 0.265625 1.53125 0.5625q1.71875 0.640625 3.0 1.265625q1.28125 0.625 2.125 1.453125q0.859375 0.828125 1.265625 1.953125q0.421875 1.109375 0.421875 2.71875q0 3.109375 -2.1875 4.828125q-2.171875 1.703125 -6.546875 1.703125q-1.46875 0 -2.65625 -0.1875q-1.1875 -0.171875 -2.109375 -0.421875q-0.90625 -0.265625 -1.5625 -0.546875q-0.65625 -0.28125 -1.09375 -0.546875l1.40625 -3.96875q0.984375 0.546875 2.4375 0.984375q1.46875 0.421875 3.578125 0.421875z" fill-rule="nonzero"></path><path fill="#000000" fill-opacity="0.0" d="m418.02625 9.818897l50.614166 0l0 57.669292l-50.614166 0z" fill-rule="nonzero"></path><path stroke="#000000" stroke-width="2.0" stroke-linejoin="round" stroke-linecap="butt" d="m418.02625 9.818897l50.614166 0l0 57.669292l-50.614166 0z" fill-rule="nonzero"></path><path fill="#000000" d="m436.1998 49.5389l0 -22.171875l14.96875 0l0 4.1875l-9.984375 0l0 4.359375l8.875 0l0 4.09375l-8.875 0l0 5.34375l10.71875 0l0 4.1875l-15.703125 0z" fill-rule="nonzero"></path><path fill="#000000" fill-opacity="0.0" d="m468.6404 9.818897l50.614166 0l0 57.669292l-50.614166 0z" fill-rule="nonzero"></path><path stroke="#000000" stroke-width="2.0" stroke-linejoin="round" stroke-linecap="butt" d="m468.6404 9.818897l50.614166 0l0 57.669292l-50.614166 0z" fill-rule="nonzero"></path><path fill="#000000" d="m496.25137 49.992023q-5.40625 0 -8.25 -3.0q-2.828125 -3.015625 -2.828125 -8.5625q0 -2.75 0.859375 -4.90625q0.875 -2.15625 2.375 -3.640625q1.515625 -1.5 3.59375 -2.265625q2.078125 -0.765625 4.5 -0.765625q1.421875 0 2.5625 0.21875q1.15625 0.203125 2.015625 0.46875q0.875 0.265625 1.4375 0.5625q0.578125 0.28125 0.84375 0.453125l-1.4375 4.03125q-1.03125 -0.546875 -2.390625 -0.921875q-1.359375 -0.390625 -3.09375 -0.390625q-1.140625 0 -2.25 0.390625q-1.109375 0.375 -1.953125 1.21875q-0.84375 0.84375 -1.359375 2.1875q-0.515625 1.34375 -0.515625 3.265625q0 1.546875 0.328125 2.875q0.34375 1.3125 1.09375 2.28125q0.75 0.953125 1.96875 1.515625q1.21875 0.5625 2.953125 0.5625q1.078125 0 1.9375 -0.125q0.875 -0.125 1.546875 -0.296875q0.671875 -0.1875 1.171875 -0.40625q0.515625 -0.234375 0.9375 -0.421875l1.375 4.0q-1.046875 0.640625 -2.96875 1.15625q-1.921875 0.515625 -4.453125 0.515625z" fill-rule="nonzero"></path><path fill="#000000" fill-opacity="0.0" d="m620.4829 9.818897l50.614197 0l0 57.669292l-50.614197 0z" fill-rule="nonzero"></path><path stroke="#000000" stroke-width="2.0" stroke-linejoin="round" stroke-linecap="butt" d="m620.4829 9.818897l50.614197 0l0 57.669292l-50.614197 0z" fill-rule="nonzero"></path><path fill="#000000" d="m654.9816 27.367023l0 4.25l-6.703125 0l0 17.921875l-4.984375 0l0 -17.921875l-6.6875 0l0 -4.25l18.375 0z" fill-rule="nonzero"></path><path fill="#f6b26b" d="m519.2546 9.818897l50.614197 0l0 57.669292l-50.614197 0z" fill-rule="nonzero"></path><path stroke="#000000" stroke-width="2.0" stroke-linejoin="round" stroke-linecap="butt" d="m519.2546 9.818897l50.614197 0l0 57.669292l-50.614197 0z" fill-rule="nonzero"></path><path fill="#000000" d="m542.95215 27.101398q4.984375 0 7.640625 1.78125q2.65625 1.78125 2.65625 5.515625q0 2.34375 -1.078125 3.796875q-1.0625 1.453125 -3.078125 2.28125q0.671875 0.84375 1.40625 1.921875q0.734375 1.0625 1.453125 2.234375q0.71875 1.15625 1.390625 2.421875q0.671875 1.265625 1.25 2.484375l-5.59375 0q-0.609375 -1.09375 -1.234375 -2.203125q-0.625 -1.125 -1.28125 -2.171875q-0.65625 -1.0625 -1.296875 -2.0q-0.640625 -0.953125 -1.28125 -1.71875l-2.46875 0l0 8.09375l-4.984375 0l0 -21.859375q1.625 -0.3125 3.375 -0.4375q1.75 -0.140625 3.125 -0.140625zm0.28125 4.265625q-0.546875 0 -0.984375 0.03125q-0.421875 0.03125 -0.8125 0.0625l0 6.015625l1.40625 0q2.828125 0 4.03125 -0.703125q1.21875 -0.703125 1.21875 -2.40625q0 -1.625 -1.234375 -2.3125q-1.21875 -0.6875 -3.625 -0.6875z" fill-rule="nonzero"></path><path fill="#000000" fill-opacity="0.0" d="m569.8688 9.818897l50.614136 0l0 57.669292l-50.614136 0z" fill-rule="nonzero"></path><path stroke="#000000" stroke-width="2.0" stroke-linejoin="round" stroke-linecap="butt" d="m569.8688 9.818897l50.614136 0l0 57.669292l-50.614136 0z" fill-rule="nonzero"></path><path fill="#000000" d="m588.04236 49.5389l0 -22.171875l14.96875 0l0 4.1875l-9.984375 0l0 4.359375l8.875 0l0 4.09375l-8.875 0l0 5.34375l10.71875 0l0 4.1875l-15.703125 0z" fill-rule="nonzero"></path><path fill="#000000" fill-opacity="0.0" d="m13.112861 67.493546l50.614174 0l0 39.36506l-50.614174 0z" fill-rule="nonzero"></path><path stroke="#000000" stroke-width="2.0" stroke-linejoin="round" stroke-linecap="butt" d="m13.112861 67.493546l50.614174 0l0 39.36506l-50.614174 0z" fill-rule="nonzero"></path><path fill="#000000" d="m30.894428 87.3492l5.34375 0l0 -5.921875l4.359375 0l0 5.921875l5.34375 0l0 4.0l-5.34375 0l0 5.921875l-4.359375 0l0 -5.921875l-5.34375 0l0 -4.0z" fill-rule="nonzero"></path><path fill="#000000" fill-opacity="0.0" d="m63.727036 67.493546l50.614174 0l0 39.36506l-50.614174 0z" fill-rule="nonzero"></path><path stroke="#000000" stroke-width="2.0" stroke-linejoin="round" stroke-linecap="butt" d="m63.727036 67.493546l50.614174 0l0 39.36506l-50.614174 0z" fill-rule="nonzero"></path><path fill="#000000" d="m81.5086 87.3492l5.34375 0l0 -5.921875l4.359375 0l0 5.921875l5.34375 0l0 4.0l-5.34375 0l0 5.921875l-4.359375 0l0 -5.921875l-5.34375 0l0 -4.0z" fill-rule="nonzero"></path><path fill="#000000" fill-opacity="0.0" d="m114.34121 67.493546l50.614174 0l0 39.36506l-50.614174 0z" fill-rule="nonzero"></path><path stroke="#000000" stroke-width="2.0" stroke-linejoin="round" stroke-linecap="butt" d="m114.34121 67.493546l50.614174 0l0 39.36506l-50.614174 0z" fill-rule="nonzero"></path><path fill="#000000" d="m132.12277 87.3492l5.34375 0l0 -5.921875l4.359375 0l0 5.921875l5.34375 0l0 4.0l-5.34375 0l0 5.921875l-4.359375 0l0 -5.921875l-5.34375 0l0 -4.0z" fill-rule="nonzero"></path><path fill="#93c47d" d="m164.95538 67.493546l50.614166 0l0 39.36506l-50.614166 0z" fill-rule="nonzero"></path><path stroke="#000000" stroke-width="2.0" stroke-linejoin="round" stroke-linecap="butt" d="m164.95538 67.493546l50.614166 0l0 39.36506l-50.614166 0z" fill-rule="nonzero"></path><path fill="#000000" d="m182.73695 87.3492l5.34375 0l0 -5.921875l4.359375 0l0 5.921875l5.34375 0l0 4.0l-5.34375 0l0 5.921875l-4.359375 0l0 -5.921875l-5.34375 0l0 -4.0z" fill-rule="nonzero"></path><path fill="#000000" fill-opacity="0.0" d="m215.56955 67.493546l50.614166 0l0 39.36506l-50.614166 0z" fill-rule="nonzero"></path><path stroke="#000000" stroke-width="2.0" stroke-linejoin="round" stroke-linecap="butt" d="m215.56955 67.493546l50.614166 0l0 39.36506l-50.614166 0z" fill-rule="nonzero"></path><path fill="#000000" d="m233.35112 87.3492l5.34375 0l0 -5.921875l4.359375 0l0 5.921875l5.34375 0l0 4.0l-5.34375 0l0 5.921875l-4.359375 0l0 -5.921875l-5.34375 0l0 -4.0z" fill-rule="nonzero"></path><path fill="#f6b26b" d="m266.18372 67.493546l50.614197 0l0 39.36506l-50.614197 0z" fill-rule="nonzero"></path><path stroke="#000000" stroke-width="2.0" stroke-linejoin="round" stroke-linecap="butt" d="m266.18372 67.493546l50.614197 0l0 39.36506l-50.614197 0z" fill-rule="nonzero"></path><path fill="#000000" d="m283.9653 87.3492l5.34375 0l0 -5.921875l4.359375 0l0 5.921875l5.34375 0l0 4.0l-5.34375 0l0 5.921875l-4.359375 0l0 -5.921875l-5.34375 0l0 -4.0z" fill-rule="nonzero"></path><path fill="#000000" fill-opacity="0.0" d="m316.7979 67.493546l50.614166 0l0 39.36506l-50.614166 0z" fill-rule="nonzero"></path><path stroke="#000000" stroke-width="2.0" stroke-linejoin="round" stroke-linecap="butt" d="m316.7979 67.493546l50.614166 0l0 39.36506l-50.614166 0z" fill-rule="nonzero"></path><path fill="#000000" d="m334.57947 87.3492l5.34375 0l0 -5.921875l4.359375 0l0 5.921875l5.34375 0l0 4.0l-5.34375 0l0 5.921875l-4.359375 0l0 -5.921875l-5.34375 0l0 -4.0z" fill-rule="nonzero"></path><path fill="#93c47d" d="m367.41208 67.493546l50.614166 0l0 39.36506l-50.614166 0z" fill-rule="nonzero"></path><path stroke="#000000" stroke-width="2.0" stroke-linejoin="round" stroke-linecap="butt" d="m367.41208 67.493546l50.614166 0l0 39.36506l-50.614166 0z" fill-rule="nonzero"></path><path fill="#000000" d="m385.19363 87.3492l5.34375 0l0 -5.921875l4.359375 0l0 5.921875l5.34375 0l0 4.0l-5.34375 0l0 5.921875l-4.359375 0l0 -5.921875l-5.34375 0l0 -4.0z" fill-rule="nonzero"></path><path fill="#000000" fill-opacity="0.0" d="m418.02625 67.493546l50.614166 0l0 39.36506l-50.614166 0z" fill-rule="nonzero"></path><path stroke="#000000" stroke-width="2.0" stroke-linejoin="round" stroke-linecap="butt" d="m418.02625 67.493546l50.614166 0l0 39.36506l-50.614166 0z" fill-rule="nonzero"></path><path fill="#000000" d="m435.8078 87.3492l5.34375 0l0 -5.921875l4.359375 0l0 5.921875l5.34375 0l0 4.0l-5.34375 0l0 5.921875l-4.359375 0l0 -5.921875l-5.34375 0l0 -4.0z" fill-rule="nonzero"></path><path fill="#000000" fill-opacity="0.0" d="m468.6404 67.493546l50.614166 0l0 39.36506l-50.614166 0z" fill-rule="nonzero"></path><path stroke="#000000" stroke-width="2.0" stroke-linejoin="round" stroke-linecap="butt" d="m468.6404 67.493546l50.614166 0l0 39.36506l-50.614166 0z" fill-rule="nonzero"></path><path fill="#000000" d="m486.422 87.3492l5.34375 0l0 -5.921875l4.359375 0l0 5.921875l5.34375 0l0 4.0l-5.34375 0l0 5.921875l-4.359375 0l0 -5.921875l-5.34375 0l0 -4.0z" fill-rule="nonzero"></path><path fill="#000000" fill-opacity="0.0" d="m620.4829 67.493546l50.614197 0l0 39.36506l-50.614197 0z" fill-rule="nonzero"></path><path stroke="#000000" stroke-width="2.0" stroke-linejoin="round" stroke-linecap="butt" d="m620.4829 67.493546l50.614197 0l0 39.36506l-50.614197 0z" fill-rule="nonzero"></path><path fill="#000000" d="m638.2645 87.3492l5.34375 0l0 -5.921875l4.359375 0l0 5.921875l5.34375 0l0 4.0l-5.34375 0l0 5.921875l-4.359375 0l0 -5.921875l-5.34375 0l0 -4.0z" fill-rule="nonzero"></path><path fill="#f6b26b" d="m519.2546 67.493546l50.614197 0l0 39.36506l-50.614197 0z" fill-rule="nonzero"></path><path stroke="#000000" stroke-width="2.0" stroke-linejoin="round" stroke-linecap="butt" d="m519.2546 67.493546l50.614197 0l0 39.36506l-50.614197 0z" fill-rule="nonzero"></path><path fill="#000000" d="m537.03613 87.3492l5.34375 0l0 -5.921875l4.359375 0l0 5.921875l5.34375 0l0 4.0l-5.34375 0l0 5.921875l-4.359375 0l0 -5.921875l-5.34375 0l0 -4.0z" fill-rule="nonzero"></path><path fill="#000000" fill-opacity="0.0" d="m569.8688 67.493546l50.614136 0l0 39.36506l-50.614136 0z" fill-rule="nonzero"></path><path stroke="#000000" stroke-width="2.0" stroke-linejoin="round" stroke-linecap="butt" d="m569.8688 67.493546l50.614136 0l0 39.36506l-50.614136 0z" fill-rule="nonzero"></path><path fill="#000000" d="m587.6503 87.3492l5.34375 0l0 -5.921875l4.359375 0l0 5.921875l5.34375 0l0 4.0l-5.34375 0l0 5.921875l-4.359375 0l0 -5.921875l-5.34375 0l0 -4.0z" fill-rule="nonzero"></path><path fill="#000000" fill-opacity="0.0" d="m13.112861 106.86352l50.614174 0l0 57.66929l-50.614174 0z" fill-rule="nonzero"></path><path stroke="#000000" stroke-width="2.0" stroke-linejoin="round" stroke-linecap="butt" d="m13.112861 106.86352l50.614174 0l0 57.66929l-50.614174 0z" fill-rule="nonzero"></path><path fill="#000000" d="m40.723804 147.03664q-5.40625 0 -8.25 -3.0q-2.828125 -3.015625 -2.828125 -8.5625q0 -2.75 0.859375 -4.90625q0.875 -2.15625 2.375 -3.6406174q1.515625 -1.5 3.59375 -2.265625q2.078125 -0.765625 4.5 -0.765625q1.421875 0 2.5625 0.21875q1.15625 0.203125 2.015625 0.46875q0.875 0.265625 1.4375 0.5625q0.578125 0.28125 0.84375 0.453125l-1.4375 4.0312424q-1.03125 -0.546875 -2.390625 -0.921875q-1.359375 -0.390625 -3.09375 -0.390625q-1.140625 0 -2.25 0.390625q-1.109375 0.375 -1.953125 1.21875q-0.84375 0.84375 -1.359375 2.1875q-0.515625 1.34375 -0.515625 3.265625q0 1.546875 0.328125 2.875q0.34375 1.3125 1.09375 2.28125q0.75 0.953125 1.96875 1.515625q1.21875 0.5625 2.953125 0.5625q1.078125 0 1.9375 -0.125q0.875 -0.125 1.546875 -0.296875q0.671875 -0.1875 1.171875 -0.40625q0.515625 -0.234375 0.9375 -0.421875l1.375 4.0q-1.046875 0.640625 -2.96875 1.15625q-1.921875 0.515625 -4.453125 0.515625z" fill-rule="nonzero"></path><path fill="#000000" fill-opacity="0.0" d="m63.727036 106.86352l50.614174 0l0 57.66929l-50.614174 0z" fill-rule="nonzero"></path><path stroke="#000000" stroke-width="2.0" stroke-linejoin="round" stroke-linecap="butt" d="m63.727036 106.86352l50.614174 0l0 57.66929l-50.614174 0z" fill-rule="nonzero"></path><path fill="#000000" d="m83.1441 135.47414q0 1.640625 0.390625 2.953125q0.40625 1.3125 1.15625 2.265625q0.765625 0.9375 1.84375 1.453125q1.09375 0.5 2.5 0.5q1.375 0 2.46875 -0.5q1.109375 -0.515625 1.859375 -1.453125q0.765625 -0.953125 1.15625 -2.265625q0.40625 -1.3125 0.40625 -2.953125q0 -1.625 -0.40625 -2.953125q-0.390625 -1.328125 -1.15625 -2.265625q-0.75 -0.953125 -1.859375 -1.453125q-1.09375 -0.515625 -2.46875 -0.515625q-1.40625 0 -2.5 0.53125q-1.078125 0.515625 -1.84375 1.46875q-0.75 0.9375 -1.15625 2.265625q-0.390625 1.328125 -0.390625 2.921875zm16.9375 0q0 2.859375 -0.859375 5.015625q-0.84375 2.15625 -2.3125 3.609375q-1.46875 1.453125 -3.515625 2.203125q-2.03125 0.734375 -4.359375 0.734375q-2.265625 0 -4.28125 -0.734375q-2.015625 -0.75 -3.53125 -2.203125q-1.5 -1.453125 -2.375 -3.609375q-0.859375 -2.15625 -0.859375 -5.015625q0 -2.84375 0.890625 -5.0q0.90625 -2.15625 2.421875 -3.6249924q1.53125 -1.484375 3.53125 -2.21875q2.0 -0.734375 4.203125 -0.734375q2.265625 0 4.28125 0.734375q2.015625 0.734375 3.515625 2.21875q1.515625 1.4687424 2.375 3.6249924q0.875 2.15625 0.875 5.0z" fill-rule="nonzero"></path><path fill="#000000" fill-opacity="0.0" d="m114.34121 106.86352l50.614174 0l0 57.66929l-50.614174 0z" fill-rule="nonzero"></path><path stroke="#000000" stroke-width="2.0" stroke-linejoin="round" stroke-linecap="butt" d="m114.34121 106.86352l50.614174 0l0 57.66929l-50.614174 0z" fill-rule="nonzero"></path><path fill="#000000" d="m135.40315 142.52101q0.359375 0.03125 0.8125 0.046875q0.46875 0.015625 1.109375 0.015625q3.75 0 5.546875 -1.890625q1.8125 -1.890625 1.8125 -5.21875q0 -3.484375 -1.734375 -5.265625q-1.71875 -1.796875 -5.46875 -1.796875q-0.5 0 -1.046875 0.015625q-0.546875 0.015625 -1.03125 0.078125l0 14.015625zm14.4375 -7.046875q0 2.890625 -0.90625 5.03125q-0.890625 2.140625 -2.546875 3.546875q-1.640625 1.40625 -4.015625 2.109375q-2.359375 0.703125 -5.296875 0.703125q-1.34375 0 -3.140625 -0.109375q-1.796875 -0.109375 -3.515625 -0.453125l0 -21.609367q1.71875 -0.3125 3.59375 -0.421875q1.875 -0.125 3.21875 -0.125q2.84375 0 5.15625 0.640625q2.328125 0.640625 3.984375 2.015625q1.671875 1.3749924 2.5625 3.5312424q0.90625 2.140625 0.90625 5.140625z" fill-rule="nonzero"></path><path fill="#93c47d" d="m164.95538 106.86352l50.614166 0l0 57.66929l-50.614166 0z" fill-rule="nonzero"></path><path stroke="#000000" stroke-width="2.0" stroke-linejoin="round" stroke-linecap="butt" d="m164.95538 106.86352l50.614166 0l0 57.66929l-50.614166 0z" fill-rule="nonzero"></path><path fill="#000000" d="m183.12895 146.58351l0 -22.171867l14.96875 0l0 4.1874924l-9.984375 0l0 4.359375l8.875 0l0 4.09375l-8.875 0l0 5.34375l10.71875 0l0 4.1875l-15.703125 0z" fill-rule="nonzero"></path><path fill="#000000" fill-opacity="0.0" d="m215.56955 106.86352l50.614166 0l0 57.66929l-50.614166 0z" fill-rule="nonzero"></path><path stroke="#000000" stroke-width="2.0" stroke-linejoin="round" stroke-linecap="butt" d="m215.56955 106.86352l50.614166 0l0 57.66929l-50.614166 0z" fill-rule="nonzero"></path><path fill="#000000" d="m243.1805 147.03664q-5.40625 0 -8.25 -3.0q-2.828125 -3.015625 -2.828125 -8.5625q0 -2.75 0.859375 -4.90625q0.875 -2.15625 2.375 -3.6406174q1.515625 -1.5 3.59375 -2.265625q2.078125 -0.765625 4.5 -0.765625q1.421875 0 2.5625 0.21875q1.15625 0.203125 2.015625 0.46875q0.875 0.265625 1.4375 0.5625q0.578125 0.28125 0.84375 0.453125l-1.4375 4.0312424q-1.03125 -0.546875 -2.390625 -0.921875q-1.359375 -0.390625 -3.09375 -0.390625q-1.140625 0 -2.25 0.390625q-1.109375 0.375 -1.953125 1.21875q-0.84375 0.84375 -1.359375 2.1875q-0.515625 1.34375 -0.515625 3.265625q0 1.546875 0.328125 2.875q0.34375 1.3125 1.09375 2.28125q0.75 0.953125 1.96875 1.515625q1.21875 0.5625 2.953125 0.5625q1.078125 0 1.9375 -0.125q0.875 -0.125 1.546875 -0.296875q0.671875 -0.1875 1.171875 -0.40625q0.515625 -0.234375 0.9375 -0.421875l1.375 4.0q-1.046875 0.640625 -2.96875 1.15625q-1.921875 0.515625 -4.453125 0.515625z" fill-rule="nonzero"></path><path fill="#f6b26b" d="m266.18372 106.86352l50.614197 0l0 57.66929l-50.614197 0z" fill-rule="nonzero"></path><path stroke="#000000" stroke-width="2.0" stroke-linejoin="round" stroke-linecap="butt" d="m266.18372 106.86352l50.614197 0l0 57.66929l-50.614197 0z" fill-rule="nonzero"></path><path fill="#000000" d="m285.6008 135.47414q0 1.640625 0.390625 2.953125q0.40625 1.3125 1.15625 2.265625q0.765625 0.9375 1.84375 1.453125q1.09375 0.5 2.5 0.5q1.375 0 2.46875 -0.5q1.109375 -0.515625 1.859375 -1.453125q0.765625 -0.953125 1.15625 -2.265625q0.40625 -1.3125 0.40625 -2.953125q0 -1.625 -0.40625 -2.953125q-0.390625 -1.328125 -1.15625 -2.265625q-0.75 -0.953125 -1.859375 -1.453125q-1.09375 -0.515625 -2.46875 -0.515625q-1.40625 0 -2.5 0.53125q-1.078125 0.515625 -1.84375 1.46875q-0.75 0.9375 -1.15625 2.265625q-0.390625 1.328125 -0.390625 2.921875zm16.9375 0q0 2.859375 -0.859375 5.015625q-0.84375 2.15625 -2.3125 3.609375q-1.46875 1.453125 -3.515625 2.203125q-2.03125 0.734375 -4.359375 0.734375q-2.265625 0 -4.28125 -0.734375q-2.015625 -0.75 -3.53125 -2.203125q-1.5 -1.453125 -2.375 -3.609375q-0.859375 -2.15625 -0.859375 -5.015625q0 -2.84375 0.890625 -5.0q0.90625 -2.15625 2.421875 -3.6249924q1.53125 -1.484375 3.53125 -2.21875q2.0 -0.734375 4.203125 -0.734375q2.265625 0 4.28125 0.734375q2.015625 0.734375 3.515625 2.21875q1.515625 1.4687424 2.375 3.6249924q0.875 2.15625 0.875 5.0z" fill-rule="nonzero"></path><path fill="#000000" fill-opacity="0.0" d="m316.7979 106.86352l50.614166 0l0 57.66929l-50.614166 0z" fill-rule="nonzero"></path><path stroke="#000000" stroke-width="2.0" stroke-linejoin="round" stroke-linecap="butt" d="m316.7979 106.86352l50.614166 0l0 57.66929l-50.614166 0z" fill-rule="nonzero"></path><path fill="#000000" d="m337.85983 142.52101q0.359375 0.03125 0.8125 0.046875q0.46875 0.015625 1.109375 0.015625q3.75 0 5.546875 -1.890625q1.8125 -1.890625 1.8125 -5.21875q0 -3.484375 -1.734375 -5.265625q-1.71875 -1.796875 -5.46875 -1.796875q-0.5 0 -1.046875 0.015625q-0.546875 0.015625 -1.03125 0.078125l0 14.015625zm14.4375 -7.046875q0 2.890625 -0.90625 5.03125q-0.890625 2.140625 -2.546875 3.546875q-1.640625 1.40625 -4.015625 2.109375q-2.359375 0.703125 -5.296875 0.703125q-1.34375 0 -3.140625 -0.109375q-1.796875 -0.109375 -3.515625 -0.453125l0 -21.609367q1.71875 -0.3125 3.59375 -0.421875q1.875 -0.125 3.21875 -0.125q2.84375 0 5.15625 0.640625q2.328125 0.640625 3.984375 2.015625q1.671875 1.3749924 2.5625 3.5312424q0.90625 2.140625 0.90625 5.140625z" fill-rule="nonzero"></path><path fill="#93c47d" d="m367.41208 106.86352l50.614166 0l0 57.66929l-50.614166 0z" fill-rule="nonzero"></path><path stroke="#000000" stroke-width="2.0" stroke-linejoin="round" stroke-linecap="butt" d="m367.41208 106.86352l50.614166 0l0 57.66929l-50.614166 0z" fill-rule="nonzero"></path><path fill="#000000" d="m385.58563 146.58351l0 -22.171867l14.96875 0l0 4.1874924l-9.984375 0l0 4.359375l8.875 0l0 4.09375l-8.875 0l0 5.34375l10.71875 0l0 4.1875l-15.703125 0z" fill-rule="nonzero"></path><path fill="#000000" fill-opacity="0.0" d="m418.02625 106.86352l50.614166 0l0 57.66929l-50.614166 0z" fill-rule="nonzero"></path><path stroke="#000000" stroke-width="2.0" stroke-linejoin="round" stroke-linecap="butt" d="m418.02625 106.86352l50.614166 0l0 57.66929l-50.614166 0z" fill-rule="nonzero"></path><path fill="#000000" d="m445.63718 147.03664q-5.40625 0 -8.25 -3.0q-2.828125 -3.015625 -2.828125 -8.5625q0 -2.75 0.859375 -4.90625q0.875 -2.15625 2.375 -3.6406174q1.515625 -1.5 3.59375 -2.265625q2.078125 -0.765625 4.5 -0.765625q1.421875 0 2.5625 0.21875q1.15625 0.203125 2.015625 0.46875q0.875 0.265625 1.4375 0.5625q0.578125 0.28125 0.84375 0.453125l-1.4375 4.0312424q-1.03125 -0.546875 -2.390625 -0.921875q-1.359375 -0.390625 -3.09375 -0.390625q-1.140625 0 -2.25 0.390625q-1.109375 0.375 -1.953125 1.21875q-0.84375 0.84375 -1.359375 2.1875q-0.515625 1.34375 -0.515625 3.265625q0 1.546875 0.328125 2.875q0.34375 1.3125 1.09375 2.28125q0.75 0.953125 1.96875 1.515625q1.21875 0.5625 2.953125 0.5625q1.078125 0 1.9375 -0.125q0.875 -0.125 1.546875 -0.296875q0.671875 -0.1875 1.171875 -0.40625q0.515625 -0.234375 0.9375 -0.421875l1.375 4.0q-1.046875 0.640625 -2.96875 1.15625q-1.921875 0.515625 -4.453125 0.515625z" fill-rule="nonzero"></path><path fill="#000000" fill-opacity="0.0" d="m468.6404 106.86352l50.614166 0l0 57.66929l-50.614166 0z" fill-rule="nonzero"></path><path stroke="#000000" stroke-width="2.0" stroke-linejoin="round" stroke-linecap="butt" d="m468.6404 106.86352l50.614166 0l0 57.66929l-50.614166 0z" fill-rule="nonzero"></path><path fill="#000000" d="m488.0575 135.47414q0 1.640625 0.390625 2.953125q0.40625 1.3125 1.15625 2.265625q0.765625 0.9375 1.84375 1.453125q1.09375 0.5 2.5 0.5q1.375 0 2.46875 -0.5q1.109375 -0.515625 1.859375 -1.453125q0.765625 -0.953125 1.15625 -2.265625q0.40625 -1.3125 0.40625 -2.953125q0 -1.625 -0.40625 -2.953125q-0.390625 -1.328125 -1.15625 -2.265625q-0.75 -0.953125 -1.859375 -1.453125q-1.09375 -0.515625 -2.46875 -0.515625q-1.40625 0 -2.5 0.53125q-1.078125 0.515625 -1.84375 1.46875q-0.75 0.9375 -1.15625 2.265625q-0.390625 1.328125 -0.390625 2.921875zm16.9375 0q0 2.859375 -0.859375 5.015625q-0.84375 2.15625 -2.3125 3.609375q-1.46875 1.453125 -3.515625 2.203125q-2.03125 0.734375 -4.359375 0.734375q-2.265625 0 -4.28125 -0.734375q-2.015625 -0.75 -3.53125 -2.203125q-1.5 -1.453125 -2.375 -3.609375q-0.859375 -2.15625 -0.859375 -5.015625q0 -2.84375 0.890625 -5.0q0.90625 -2.15625 2.421875 -3.6249924q1.53125 -1.484375 3.53125 -2.21875q2.0 -0.734375 4.203125 -0.734375q2.265625 0 4.28125 0.734375q2.015625 0.734375 3.515625 2.21875q1.515625 1.4687424 2.375 3.6249924q0.875 2.15625 0.875 5.0z" fill-rule="nonzero"></path><path fill="#000000" fill-opacity="0.0" d="m620.4829 106.86352l50.614197 0l0 57.66929l-50.614197 0z" fill-rule="nonzero"></path><path stroke="#000000" stroke-width="2.0" stroke-linejoin="round" stroke-linecap="butt" d="m620.4829 106.86352l50.614197 0l0 57.66929l-50.614197 0z" fill-rule="nonzero"></path><path fill="#000000" d="m648.0939 147.03664q-5.40625 0 -8.25 -3.0q-2.828125 -3.015625 -2.828125 -8.5625q0 -2.75 0.859375 -4.90625q0.875 -2.15625 2.375 -3.6406174q1.515625 -1.5 3.59375 -2.265625q2.078125 -0.765625 4.5 -0.765625q1.421875 0 2.5625 0.21875q1.15625 0.203125 2.015625 0.46875q0.875 0.265625 1.4375 0.5625q0.578125 0.28125 0.84375 0.453125l-1.4375 4.0312424q-1.03125 -0.546875 -2.390625 -0.921875q-1.359375 -0.390625 -3.09375 -0.390625q-1.140625 0 -2.25 0.390625q-1.109375 0.375 -1.953125 1.21875q-0.84375 0.84375 -1.359375 2.1875q-0.515625 1.34375 -0.515625 3.265625q0 1.546875 0.328125 2.875q0.34375 1.3125 1.09375 2.28125q0.75 0.953125 1.96875 1.515625q1.21875 0.5625 2.953125 0.5625q1.078125 0 1.9375 -0.125q0.875 -0.125 1.546875 -0.296875q0.671875 -0.1875 1.171875 -0.40625q0.515625 -0.234375 0.9375 -0.421875l1.375 4.0q-1.046875 0.640625 -2.96875 1.15625q-1.921875 0.515625 -4.453125 0.515625z" fill-rule="nonzero"></path><path fill="#f6b26b" d="m519.2546 106.86352l50.614197 0l0 57.66929l-50.614197 0z" fill-rule="nonzero"></path><path stroke="#000000" stroke-width="2.0" stroke-linejoin="round" stroke-linecap="butt" d="m519.2546 106.86352l50.614197 0l0 57.66929l-50.614197 0z" fill-rule="nonzero"></path><path fill="#000000" d="m540.3165 142.52101q0.359375 0.03125 0.8125 0.046875q0.46875 0.015625 1.109375 0.015625q3.75 0 5.546875 -1.890625q1.8125 -1.890625 1.8125 -5.21875q0 -3.484375 -1.734375 -5.265625q-1.71875 -1.796875 -5.46875 -1.796875q-0.5 0 -1.046875 0.015625q-0.546875 0.015625 -1.03125 0.078125l0 14.015625zm14.4375 -7.046875q0 2.890625 -0.90625 5.03125q-0.890625 2.140625 -2.546875 3.546875q-1.640625 1.40625 -4.015625 2.109375q-2.359375 0.703125 -5.296875 0.703125q-1.34375 0 -3.140625 -0.109375q-1.796875 -0.109375 -3.515625 -0.453125l0 -21.609367q1.71875 -0.3125 3.59375 -0.421875q1.875 -0.125 3.21875 -0.125q2.84375 0 5.15625 0.640625q2.328125 0.640625 3.984375 2.015625q1.671875 1.3749924 2.5625 3.5312424q0.90625 2.140625 0.90625 5.140625z" fill-rule="nonzero"></path><path fill="#000000" fill-opacity="0.0" d="m569.8688 106.86352l50.614136 0l0 57.66929l-50.614136 0z" fill-rule="nonzero"></path><path stroke="#000000" stroke-width="2.0" stroke-linejoin="round" stroke-linecap="butt" d="m569.8688 106.86352l50.614136 0l0 57.66929l-50.614136 0z" fill-rule="nonzero"></path><path fill="#000000" d="m588.04236 146.58351l0 -22.171867l14.96875 0l0 4.1874924l-9.984375 0l0 4.359375l8.875 0l0 4.09375l-8.875 0l0 5.34375l10.71875 0l0 4.1875l-15.703125 0z" fill-rule="nonzero"></path><path fill="#000000" fill-opacity="0.0" d="m13.112861 164.53816l50.614174 0l0 39.365067l-50.614174 0z" fill-rule="nonzero"></path><path stroke="#000000" stroke-width="2.0" stroke-linejoin="round" stroke-linecap="butt" d="m13.112861 164.53816l50.614174 0l0 39.365067l-50.614174 0z" fill-rule="nonzero"></path><path fill="#000000" d="m30.894428 187.90944l15.046875 0l0 4.0l-15.046875 0l0 -4.0zm0 -7.015625l15.046875 0l0 4.0l-15.046875 0l0 -4.0z" fill-rule="nonzero"></path><path fill="#000000" fill-opacity="0.0" d="m63.727036 164.53816l50.614174 0l0 39.365067l-50.614174 0z" fill-rule="nonzero"></path><path stroke="#000000" stroke-width="2.0" stroke-linejoin="round" stroke-linecap="butt" d="m63.727036 164.53816l50.614174 0l0 39.365067l-50.614174 0z" fill-rule="nonzero"></path><path fill="#000000" d="m81.5086 187.90944l15.046875 0l0 4.0l-15.046875 0l0 -4.0zm0 -7.015625l15.046875 0l0 4.0l-15.046875 0l0 -4.0z" fill-rule="nonzero"></path><path fill="#000000" fill-opacity="0.0" d="m114.34121 164.53816l50.614174 0l0 39.365067l-50.614174 0z" fill-rule="nonzero"></path><path stroke="#000000" stroke-width="2.0" stroke-linejoin="round" stroke-linecap="butt" d="m114.34121 164.53816l50.614174 0l0 39.365067l-50.614174 0z" fill-rule="nonzero"></path><path fill="#000000" d="m132.12277 187.90944l15.046875 0l0 4.0l-15.046875 0l0 -4.0zm0 -7.015625l15.046875 0l0 4.0l-15.046875 0l0 -4.0z" fill-rule="nonzero"></path><path fill="#93c47d" d="m164.95538 164.53816l50.614166 0l0 39.365067l-50.614166 0z" fill-rule="nonzero"></path><path stroke="#000000" stroke-width="2.0" stroke-linejoin="round" stroke-linecap="butt" d="m164.95538 164.53816l50.614166 0l0 39.365067l-50.614166 0z" fill-rule="nonzero"></path><path fill="#000000" d="m182.73695 187.90944l15.046875 0l0 4.0l-15.046875 0l0 -4.0zm0 -7.015625l15.046875 0l0 4.0l-15.046875 0l0 -4.0z" fill-rule="nonzero"></path><path fill="#000000" fill-opacity="0.0" d="m215.56955 164.53816l50.614166 0l0 39.365067l-50.614166 0z" fill-rule="nonzero"></path><path stroke="#000000" stroke-width="2.0" stroke-linejoin="round" stroke-linecap="butt" d="m215.56955 164.53816l50.614166 0l0 39.365067l-50.614166 0z" fill-rule="nonzero"></path><path fill="#000000" d="m233.35112 187.90944l15.046875 0l0 4.0l-15.046875 0l0 -4.0zm0 -7.015625l15.046875 0l0 4.0l-15.046875 0l0 -4.0z" fill-rule="nonzero"></path><path fill="#f6b26b" d="m266.18372 164.53816l50.614197 0l0 39.365067l-50.614197 0z" fill-rule="nonzero"></path><path stroke="#000000" stroke-width="2.0" stroke-linejoin="round" stroke-linecap="butt" d="m266.18372 164.53816l50.614197 0l0 39.365067l-50.614197 0z" fill-rule="nonzero"></path><path fill="#000000" d="m283.9653 187.90944l15.046875 0l0 4.0l-15.046875 0l0 -4.0zm0 -7.015625l15.046875 0l0 4.0l-15.046875 0l0 -4.0z" fill-rule="nonzero"></path><path fill="#000000" fill-opacity="0.0" d="m316.7979 164.53816l50.614166 0l0 39.365067l-50.614166 0z" fill-rule="nonzero"></path><path stroke="#000000" stroke-width="2.0" stroke-linejoin="round" stroke-linecap="butt" d="m316.7979 164.53816l50.614166 0l0 39.365067l-50.614166 0z" fill-rule="nonzero"></path><path fill="#000000" d="m334.57947 187.90944l15.046875 0l0 4.0l-15.046875 0l0 -4.0zm0 -7.015625l15.046875 0l0 4.0l-15.046875 0l0 -4.0z" fill-rule="nonzero"></path><path fill="#93c47d" d="m367.41208 164.53816l50.614166 0l0 39.365067l-50.614166 0z" fill-rule="nonzero"></path><path stroke="#000000" stroke-width="2.0" stroke-linejoin="round" stroke-linecap="butt" d="m367.41208 164.53816l50.614166 0l0 39.365067l-50.614166 0z" fill-rule="nonzero"></path><path fill="#000000" d="m385.19363 187.90944l15.046875 0l0 4.0l-15.046875 0l0 -4.0zm0 -7.015625l15.046875 0l0 4.0l-15.046875 0l0 -4.0z" fill-rule="nonzero"></path><path fill="#000000" fill-opacity="0.0" d="m418.02625 164.53816l50.614166 0l0 39.365067l-50.614166 0z" fill-rule="nonzero"></path><path stroke="#000000" stroke-width="2.0" stroke-linejoin="round" stroke-linecap="butt" d="m418.02625 164.53816l50.614166 0l0 39.365067l-50.614166 0z" fill-rule="nonzero"></path><path fill="#000000" d="m435.8078 187.90944l15.046875 0l0 4.0l-15.046875 0l0 -4.0zm0 -7.015625l15.046875 0l0 4.0l-15.046875 0l0 -4.0z" fill-rule="nonzero"></path><path fill="#000000" fill-opacity="0.0" d="m468.6404 164.53816l50.614166 0l0 39.365067l-50.614166 0z" fill-rule="nonzero"></path><path stroke="#000000" stroke-width="2.0" stroke-linejoin="round" stroke-linecap="butt" d="m468.6404 164.53816l50.614166 0l0 39.365067l-50.614166 0z" fill-rule="nonzero"></path><path fill="#000000" d="m486.422 187.90944l15.046875 0l0 4.0l-15.046875 0l0 -4.0zm0 -7.015625l15.046875 0l0 4.0l-15.046875 0l0 -4.0z" fill-rule="nonzero"></path><path fill="#000000" fill-opacity="0.0" d="m620.4829 164.53816l50.614197 0l0 39.365067l-50.614197 0z" fill-rule="nonzero"></path><path stroke="#000000" stroke-width="2.0" stroke-linejoin="round" stroke-linecap="butt" d="m620.4829 164.53816l50.614197 0l0 39.365067l-50.614197 0z" fill-rule="nonzero"></path><path fill="#000000" d="m638.2645 187.90944l15.046875 0l0 4.0l-15.046875 0l0 -4.0zm0 -7.015625l15.046875 0l0 4.0l-15.046875 0l0 -4.0z" fill-rule="nonzero"></path><path fill="#f6b26b" d="m519.2546 164.53816l50.614197 0l0 39.365067l-50.614197 0z" fill-rule="nonzero"></path><path stroke="#000000" stroke-width="2.0" stroke-linejoin="round" stroke-linecap="butt" d="m519.2546 164.53816l50.614197 0l0 39.365067l-50.614197 0z" fill-rule="nonzero"></path><path fill="#000000" d="m537.03613 187.90944l15.046875 0l0 4.0l-15.046875 0l0 -4.0zm0 -7.015625l15.046875 0l0 4.0l-15.046875 0l0 -4.0z" fill-rule="nonzero"></path><path fill="#000000" fill-opacity="0.0" d="m569.8688 164.53816l50.614136 0l0 39.365067l-50.614136 0z" fill-rule="nonzero"></path><path stroke="#000000" stroke-width="2.0" stroke-linejoin="round" stroke-linecap="butt" d="m569.8688 164.53816l50.614136 0l0 39.365067l-50.614136 0z" fill-rule="nonzero"></path><path fill="#000000" d="m587.6503 187.90944l15.046875 0l0 4.0l-15.046875 0l0 -4.0zm0 -7.015625l15.046875 0l0 4.0l-15.046875 0l0 -4.0z" fill-rule="nonzero"></path><path fill="#000000" fill-opacity="0.0" d="m13.112861 203.90814l50.614174 0l0 57.66928l-50.614174 0z" fill-rule="nonzero"></path><path stroke="#000000" stroke-width="2.0" stroke-linejoin="round" stroke-linecap="butt" d="m13.112861 203.90814l50.614174 0l0 57.66928l-50.614174 0z" fill-rule="nonzero"></path><path fill="#000000" d="m32.529926 232.51877q0 1.640625 0.390625 2.953125q0.40625 1.3125 1.15625 2.265625q0.765625 0.9375 1.84375 1.453125q1.09375 0.5 2.5 0.5q1.375 0 2.46875 -0.5q1.109375 -0.515625 1.859375 -1.453125q0.765625 -0.953125 1.15625 -2.265625q0.40625 -1.3125 0.40625 -2.953125q0 -1.625 -0.40625 -2.953125q-0.390625 -1.328125 -1.15625 -2.265625q-0.75 -0.953125 -1.859375 -1.453125q-1.09375 -0.515625 -2.46875 -0.515625q-1.40625 0 -2.5 0.53125q-1.078125 0.515625 -1.84375 1.46875q-0.75 0.9375 -1.15625 2.265625q-0.390625 1.328125 -0.390625 2.921875zm16.9375 0q0 2.859375 -0.859375 5.015625q-0.84375 2.15625 -2.3125 3.609375q-1.46875 1.453125 -3.515625 2.203125q-2.03125 0.734375 -4.359375 0.734375q-2.265625 0 -4.28125 -0.734375q-2.015625 -0.75 -3.53125 -2.203125q-1.5 -1.453125 -2.375 -3.609375q-0.859375 -2.15625 -0.859375 -5.015625q0 -2.84375 0.890625 -5.0q0.90625 -2.15625 2.421875 -3.625q1.53125 -1.484375 3.53125 -2.21875q2.0 -0.734375 4.203125 -0.734375q2.265625 0 4.28125 0.734375q2.015625 0.734375 3.515625 2.21875q1.515625 1.46875 2.375 3.625q0.875 2.15625 0.875 5.0z" fill-rule="nonzero"></path><path fill="#000000" fill-opacity="0.0" d="m63.727036 203.90814l50.614174 0l0 57.66928l-50.614174 0z" fill-rule="nonzero"></path><path stroke="#000000" stroke-width="2.0" stroke-linejoin="round" stroke-linecap="butt" d="m63.727036 203.90814l50.614174 0l0 57.66928l-50.614174 0z" fill-rule="nonzero"></path><path fill="#000000" d="m88.331474 239.81564q1.046875 0 1.734375 -0.171875q0.703125 -0.171875 1.109375 -0.46875q0.421875 -0.3125 0.578125 -0.71875q0.15625 -0.421875 0.15625 -0.9375q0 -1.09375 -1.03125 -1.8125q-1.015625 -0.71875 -3.515625 -1.546875q-1.078125 -0.390625 -2.171875 -0.875q-1.078125 -0.5 -1.953125 -1.25q-0.859375 -0.765625 -1.40625 -1.828125q-0.546875 -1.078125 -0.546875 -2.609375q0 -1.53125 0.578125 -2.765625q0.578125 -1.234375 1.625 -2.09375q1.0625 -0.875 2.5625 -1.328125q1.515625 -0.46875 3.40625 -0.46875q2.234375 0 3.859375 0.484375q1.640625 0.46875 2.6875 1.046875l-1.4375 3.9375q-0.921875 -0.484375 -2.0625 -0.84375q-1.140625 -0.375 -2.734375 -0.375q-1.796875 0 -2.578125 0.5q-0.78125 0.5 -0.78125 1.515625q0 0.609375 0.28125 1.03125q0.296875 0.421875 0.8125 0.765625q0.53125 0.328125 1.21875 0.59375q0.703125 0.265625 1.53125 0.5625q1.71875 0.640625 3.0 1.265625q1.28125 0.625 2.125 1.453125q0.859375 0.828125 1.265625 1.953125q0.421875 1.109375 0.421875 2.71875q0 3.109375 -2.1875 4.828125q-2.171875 1.703125 -6.546875 1.703125q-1.46875 0 -2.65625 -0.1875q-1.1875 -0.171875 -2.109375 -0.421875q-0.90625 -0.265625 -1.5625 -0.546875q-0.65625 -0.28125 -1.09375 -0.546875l1.40625 -3.96875q0.984375 0.546875 2.4375 0.984375q1.46875 0.421875 3.578125 0.421875z" fill-rule="nonzero"></path><path fill="#000000" fill-opacity="0.0" d="m114.34121 203.90814l50.614174 0l0 57.66928l-50.614174 0z" fill-rule="nonzero"></path><path stroke="#000000" stroke-width="2.0" stroke-linejoin="round" stroke-linecap="butt" d="m114.34121 203.90814l50.614174 0l0 57.66928l-50.614174 0z" fill-rule="nonzero"></path><path fill="#000000" d="m137.25252 243.62814q-1.3125 -2.78125 -2.59375 -5.78125q-1.28125 -3.015625 -2.4375 -5.953125q-1.15625 -2.953125 -2.125 -5.640625q-0.96875 -2.6875 -1.6875 -4.796875l5.515625 0q0.640625 1.921875 1.390625 4.140625q0.75 2.21875 1.53125 4.4375q0.78125 2.203125 1.515625 4.21875q0.75 2.015625 1.375 3.484375q0.609375 -1.46875 1.359375 -3.484375q0.765625 -2.015625 1.546875 -4.21875q0.78125 -2.21875 1.53125 -4.4375q0.75 -2.21875 1.390625 -4.140625l5.3125 0q-0.734375 2.109375 -1.703125 4.796875q-0.953125 2.6875 -2.109375 5.640625q-1.140625 2.9375 -2.421875 5.953125q-1.28125 3.0 -2.59375 5.78125l-4.796875 0z" fill-rule="nonzero"></path><path fill="#93c47d" d="m164.95538 203.90814l50.614166 0l0 57.66928l-50.614166 0z" fill-rule="nonzero"></path><path stroke="#000000" stroke-width="2.0" stroke-linejoin="round" stroke-linecap="butt" d="m164.95538 203.90814l50.614166 0l0 57.66928l-50.614166 0z" fill-rule="nonzero"></path><path fill="#000000" d="m192.53194 223.81564q0.390625 1.3125 0.84375 2.96875q0.46875 1.640625 1.0 3.40625q0.53125 1.75 1.0625 3.515625q0.546875 1.765625 1.0625 3.265625q0.421875 -1.625 0.84375 -3.546875q0.4375 -1.921875 0.8125 -3.96875q0.390625 -2.046875 0.75 -4.078125q0.375 -2.03125 0.703125 -3.921875l5.1875 0q-1.125 5.5625 -2.59375 11.296875q-1.453125 5.71875 -3.140625 10.875l-4.578125 0q-1.125 -3.078125 -2.1875 -6.453125q-1.046875 -3.375 -2.0625 -6.765625q-1.03125 3.390625 -2.0625 6.765625q-1.015625 3.375 -2.140625 6.453125l-4.5625 0q-1.703125 -5.15625 -3.15625 -10.875q-1.453125 -5.734375 -2.578125 -11.296875l5.40625 0q0.328125 1.890625 0.703125 3.921875q0.390625 2.03125 0.796875 4.078125q0.421875 2.046875 0.84375 3.96875q0.4375 1.921875 0.890625 3.546875q0.578125 -1.5625 1.109375 -3.328125q0.546875 -1.765625 1.0625 -3.515625q0.515625 -1.765625 0.9375 -3.390625q0.4375 -1.640625 0.796875 -2.921875l4.25 0z" fill-rule="nonzero"></path><path fill="#000000" fill-opacity="0.0" d="m215.56955 203.90814l50.614166 0l0 57.66928l-50.614166 0z" fill-rule="nonzero"></path><path stroke="#000000" stroke-width="2.0" stroke-linejoin="round" stroke-linecap="butt" d="m215.56955 203.90814l50.614166 0l0 57.66928l-50.614166 0z" fill-rule="nonzero"></path><path fill="#000000" d="m243.1805 244.08127q-5.40625 0 -8.25 -3.0q-2.828125 -3.015625 -2.828125 -8.5625q0 -2.75 0.859375 -4.90625q0.875 -2.15625 2.375 -3.640625q1.515625 -1.5 3.59375 -2.265625q2.078125 -0.765625 4.5 -0.765625q1.421875 0 2.5625 0.21875q1.15625 0.203125 2.015625 0.46875q0.875 0.265625 1.4375 0.5625q0.578125 0.28125 0.84375 0.453125l-1.4375 4.03125q-1.03125 -0.546875 -2.390625 -0.921875q-1.359375 -0.390625 -3.09375 -0.390625q-1.140625 0 -2.25 0.390625q-1.109375 0.375 -1.953125 1.21875q-0.84375 0.84375 -1.359375 2.1875q-0.515625 1.34375 -0.515625 3.265625q0 1.546875 0.328125 2.875q0.34375 1.3125 1.09375 2.28125q0.75 0.953125 1.96875 1.515625q1.21875 0.5625 2.953125 0.5625q1.078125 0 1.9375 -0.125q0.875 -0.125 1.546875 -0.296875q0.671875 -0.1875 1.171875 -0.40625q0.515625 -0.234375 0.9375 -0.421875l1.375 4.0q-1.046875 0.640625 -2.96875 1.15625q-1.921875 0.515625 -4.453125 0.515625z" fill-rule="nonzero"></path><path fill="#f6b26b" d="m266.18372 203.90814l50.614197 0l0 57.66928l-50.614197 0z" fill-rule="nonzero"></path><path stroke="#000000" stroke-width="2.0" stroke-linejoin="round" stroke-linecap="butt" d="m266.18372 203.90814l50.614197 0l0 57.66928l-50.614197 0z" fill-rule="nonzero"></path><path fill="#000000" d="m291.41318 244.08127q-2.34375 0 -4.046875 -0.65625q-1.6875 -0.65625 -2.796875 -1.828125q-1.09375 -1.171875 -1.625 -2.78125q-0.53125 -1.625 -0.53125 -3.578125l0 -13.78125l5.0 0l0 13.375q0 1.34375 0.296875 2.296875q0.3125 0.9375 0.828125 1.53125q0.53125 0.578125 1.28125 0.84375q0.765625 0.25 1.65625 0.25q1.828125 0 2.953125 -1.109375q1.140625 -1.125 1.140625 -3.8125l0 -13.375l5.0 0l0 13.78125q0 1.953125 -0.546875 3.59375q-0.546875 1.625 -1.671875 2.796875q-1.109375 1.171875 -2.84375 1.8125q-1.734375 0.640625 -4.09375 0.640625z" fill-rule="nonzero"></path><path fill="#000000" fill-opacity="0.0" d="m316.7979 203.90814l50.614166 0l0 57.66928l-50.614166 0z" fill-rule="nonzero"></path><path stroke="#000000" stroke-width="2.0" stroke-linejoin="round" stroke-linecap="butt" d="m316.7979 203.90814l50.614166 0l0 57.66928l-50.614166 0z" fill-rule="nonzero"></path><path fill="#000000" d="m346.29846 221.45627l4.984375 0l0 22.171875l-4.984375 0l0 -9.40625l-8.390625 0l0 9.40625l-4.984375 0l0 -22.171875l4.984375 0l0 8.46875l8.390625 0l0 -8.46875z" fill-rule="nonzero"></path><path fill="#93c47d" d="m367.41208 203.90814l50.614166 0l0 57.66928l-50.614166 0z" fill-rule="nonzero"></path><path stroke="#000000" stroke-width="2.0" stroke-linejoin="round" stroke-linecap="butt" d="m367.41208 203.90814l50.614166 0l0 57.66928l-50.614166 0z" fill-rule="nonzero"></path><path fill="#000000" d="m394.98862 223.81564q0.390625 1.3125 0.84375 2.96875q0.46875 1.640625 1.0 3.40625q0.53125 1.75 1.0625 3.515625q0.546875 1.765625 1.0625 3.265625q0.421875 -1.625 0.84375 -3.546875q0.4375 -1.921875 0.8125 -3.96875q0.390625 -2.046875 0.75 -4.078125q0.375 -2.03125 0.703125 -3.921875l5.1875 0q-1.125 5.5625 -2.59375 11.296875q-1.453125 5.71875 -3.140625 10.875l-4.578125 0q-1.125 -3.078125 -2.1875 -6.453125q-1.046875 -3.375 -2.0625 -6.765625q-1.03125 3.390625 -2.0625 6.765625q-1.015625 3.375 -2.140625 6.453125l-4.5625 0q-1.703125 -5.15625 -3.15625 -10.875q-1.453125 -5.734375 -2.578125 -11.296875l5.40625 0q0.328125 1.890625 0.703125 3.921875q0.390625 2.03125 0.796875 4.078125q0.421875 2.046875 0.84375 3.96875q0.4375 1.921875 0.890625 3.546875q0.578125 -1.5625 1.109375 -3.328125q0.546875 -1.765625 1.0625 -3.515625q0.515625 -1.765625 0.9375 -3.390625q0.4375 -1.640625 0.796875 -2.921875l4.25 0z" fill-rule="nonzero"></path><path fill="#000000" fill-opacity="0.0" d="m418.02625 203.90814l50.614166 0l0 57.66928l-50.614166 0z" fill-rule="nonzero"></path><path stroke="#000000" stroke-width="2.0" stroke-linejoin="round" stroke-linecap="butt" d="m418.02625 203.90814l50.614166 0l0 57.66928l-50.614166 0z" fill-rule="nonzero"></path><path fill="#000000" d="m445.47632 225.2844q-3.484375 0 -5.046875 1.9375q-1.546875 1.9375 -1.546875 5.296875q0 1.640625 0.375 2.96875q0.390625 1.328125 1.15625 2.296875q0.78125 0.953125 1.921875 1.484375q1.15625 0.515625 2.6875 0.515625q0.84375 0 1.421875 -0.03125q0.59375 -0.03125 1.046875 -0.125l0 -7.71875l5.0 0l0 10.984375q-0.90625 0.34375 -2.890625 0.75q-1.984375 0.40625 -4.890625 0.40625q-2.5 0 -4.53125 -0.765625q-2.03125 -0.78125 -3.46875 -2.25q-1.4375 -1.46875 -2.234375 -3.609375q-0.78125 -2.15625 -0.78125 -4.90625q0 -2.78125 0.859375 -4.921875q0.875 -2.140625 2.375 -3.625q1.515625 -1.5 3.546875 -2.265625q2.03125 -0.765625 4.328125 -0.765625q1.5625 0 2.828125 0.21875q1.265625 0.203125 2.171875 0.46875q0.921875 0.265625 1.515625 0.5625q0.59375 0.28125 0.84375 0.453125l-1.4375 4.0q-1.03125 -0.546875 -2.359375 -0.953125q-1.328125 -0.40625 -2.890625 -0.40625z" fill-rule="nonzero"></path><path fill="#000000" fill-opacity="0.0" d="m468.6404 203.90814l50.614166 0l0 57.66928l-50.614166 0z" fill-rule="nonzero"></path><path stroke="#000000" stroke-width="2.0" stroke-linejoin="round" stroke-linecap="butt" d="m468.6404 203.90814l50.614166 0l0 57.66928l-50.614166 0z" fill-rule="nonzero"></path><path fill="#000000" d="m488.0575 232.51877q0 1.640625 0.390625 2.953125q0.40625 1.3125 1.15625 2.265625q0.765625 0.9375 1.84375 1.453125q1.09375 0.5 2.5 0.5q1.375 0 2.46875 -0.5q1.109375 -0.515625 1.859375 -1.453125q0.765625 -0.953125 1.15625 -2.265625q0.40625 -1.3125 0.40625 -2.953125q0 -1.625 -0.40625 -2.953125q-0.390625 -1.328125 -1.15625 -2.265625q-0.75 -0.953125 -1.859375 -1.453125q-1.09375 -0.515625 -2.46875 -0.515625q-1.40625 0 -2.5 0.53125q-1.078125 0.515625 -1.84375 1.46875q-0.75 0.9375 -1.15625 2.265625q-0.390625 1.328125 -0.390625 2.921875zm16.9375 0q0 2.34375 -0.578125 4.21875q-0.578125 1.859375 -1.625 3.28125q-1.03125 1.40625 -2.484375 2.328125q-1.4375 0.921875 -3.15625 1.34375q0.15625 0.640625 0.703125 1.03125q0.546875 0.40625 1.375 0.65625q0.828125 0.265625 1.921875 0.390625q1.109375 0.125 2.390625 0.234375l-1.015625 3.640625q-2.5 -0.09375 -4.28125 -0.5q-1.765625 -0.390625 -3.0 -1.09375q-1.234375 -0.703125 -1.953125 -1.734375q-0.71875 -1.03125 -1.109375 -2.375q-1.984375 -0.25 -3.6875 -1.09375q-1.6875 -0.84375 -2.9375 -2.28125q-1.234375 -1.453125 -1.953125 -3.46875q-0.703125 -2.015625 -0.703125 -4.578125q0 -2.84375 0.890625 -5.0q0.90625 -2.15625 2.421875 -3.625q1.53125 -1.484375 3.53125 -2.21875q2.0 -0.734375 4.203125 -0.734375q2.265625 0 4.28125 0.734375q2.015625 0.734375 3.515625 2.21875q1.515625 1.46875 2.375 3.625q0.875 2.15625 0.875 5.0z" fill-rule="nonzero"></path><path fill="#000000" fill-opacity="0.0" d="m620.4829 203.90814l50.614197 0l0 57.66928l-50.614197 0z" fill-rule="nonzero"></path><path stroke="#000000" stroke-width="2.0" stroke-linejoin="round" stroke-linecap="butt" d="m620.4829 203.90814l50.614197 0l0 57.66928l-50.614197 0z" fill-rule="nonzero"></path><path fill="#000000" d="m643.3942 243.62814q-1.3125 -2.78125 -2.59375 -5.78125q-1.28125 -3.015625 -2.4375 -5.953125q-1.15625 -2.953125 -2.125 -5.640625q-0.96875 -2.6875 -1.6875 -4.796875l5.515625 0q0.640625 1.921875 1.390625 4.140625q0.75 2.21875 1.53125 4.4375q0.78125 2.203125 1.515625 4.21875q0.75 2.015625 1.375 3.484375q0.609375 -1.46875 1.359375 -3.484375q0.765625 -2.015625 1.546875 -4.21875q0.78125 -2.21875 1.53125 -4.4375q0.75 -2.21875 1.390625 -4.140625l5.3125 0q-0.734375 2.109375 -1.703125 4.796875q-0.953125 2.6875 -2.109375 5.640625q-1.140625 2.9375 -2.421875 5.953125q-1.28125 3.0 -2.59375 5.78125l-4.796875 0z" fill-rule="nonzero"></path><path fill="#f6b26b" d="m519.2546 203.90814l50.614197 0l0 57.66928l-50.614197 0z" fill-rule="nonzero"></path><path stroke="#000000" stroke-width="2.0" stroke-linejoin="round" stroke-linecap="butt" d="m519.2546 203.90814l50.614197 0l0 57.66928l-50.614197 0z" fill-rule="nonzero"></path><path fill="#000000" d="m544.484 244.08127q-2.34375 0 -4.046875 -0.65625q-1.6875 -0.65625 -2.796875 -1.828125q-1.09375 -1.171875 -1.625 -2.78125q-0.53125 -1.625 -0.53125 -3.578125l0 -13.78125l5.0 0l0 13.375q0 1.34375 0.296875 2.296875q0.3125 0.9375 0.828125 1.53125q0.53125 0.578125 1.28125 0.84375q0.765625 0.25 1.65625 0.25q1.828125 0 2.953125 -1.109375q1.140625 -1.125 1.140625 -3.8125l0 -13.375l5.0 0l0 13.78125q0 1.953125 -0.546875 3.59375q-0.546875 1.625 -1.671875 2.796875q-1.109375 1.171875 -2.84375 1.8125q-1.734375 0.640625 -4.09375 0.640625z" fill-rule="nonzero"></path><path fill="#000000" fill-opacity="0.0" d="m569.8688 203.90814l50.614136 0l0 57.66928l-50.614136 0z" fill-rule="nonzero"></path><path stroke="#000000" stroke-width="2.0" stroke-linejoin="round" stroke-linecap="butt" d="m569.8688 203.90814l50.614136 0l0 57.66928l-50.614136 0z" fill-rule="nonzero"></path><path fill="#000000" d="m592.6824 221.45627l4.984375 0l0 22.171875l-4.984375 0l0 -22.171875z" fill-rule="nonzero"></path><path fill="#000000" fill-opacity="0.0" d="m13.112861 9.824147l202.48819 0l0 251.74803l-202.48819 0z" fill-rule="nonzero"></path><path stroke="#ff0000" stroke-width="4.0" stroke-linejoin="round" stroke-linecap="butt" d="m13.112861 9.824147l202.48819 0l0 251.74803l-202.48819 0z" fill-rule="nonzero"></path></g></svg>

